Genre:Action | Crime | Drama
Language:English
IMDb:http://www.imdb.com/title/tt1321870/
Source:Matine/Echo/ADTRG Thanks
Encoder:Tony

Format : AVI
Format/Info : Audio Video Interleave
File size : 1 006 MiB
Duration : 1h 43mn
Overall bit rate : 1 358 Kbps

Video
ID : 0
Format : MPEG-4 Visual
Format profile : Simple@L5
Format settings, BVOP : No
Format settings, QPel : No
Format settings, GMC : No warppoints
Format settings, Matrix : Default (H.263)
Codec ID : XVID
Codec ID/Hint : XviD
Duration : 1h 43mn
Bit rate : 1 218 Kbps
Width : 720 pixels
Height : 352 pixels
Display aspect ratio : 2.045
Frame rate : 29.970 fps
Color space : YUV
Chroma subsampling : 4:2:0
Bit depth : 8 bits
Scan type : Progressive
Compression mode : Lossy
Bits/(Pixel*Frame) : 0.160
Stream size : 903 MiB (90%)
Writing library : XviD 64

Audio
ID : 1
Format : MPEG Audio
Format version : Version 1
Format profile : Layer 3
Mode : Joint stereo
Mode extension : MS Stereo
Codec ID : 55
Codec ID/Hint : MP3
Duration : 1h 43mn
Bit rate mode : Constant
Bit rate : 128 Kbps
Channel(s) : 2 channels
Sampling rate : 44.1 KHz
Compression mode : Lossy
Stream size : 94.9 MiB (9%)
Alignment : Split accross interleaves
Interleave, duration : 33 ms (1.00 video frame)
Interleave, preload duration : 500 ms
Writing library : LAME3.99r
Encoding settings : -m j -V 4 -q 3 -lowpass 17 -b 128

Plot:
Los Angeles, 1949: A secret crew of police officers led by two determined sergeants work together in an effort to take down the ruthless mob king Mickey Cohen who runs the city

TRAILER:




vlcsnap2012121011h44m38.png
vlcsnap2012121011h44m55.png
vlcsnap2012121011h45m03.png

Greets:
CRYS,INSPiRAL,IMAGINE,LKRG,ADTRG,FXG,3Li,FLAWL3SS,CrEwSaDe,TA,iLLUSiON,EMBER,HOPE,GooN,BBnRG,NOGRP,ETRG,BHRG,iLLUMiNATi,MiSTERE.ViSiON,DTRG SAFCuk009,LU,TheFalcon007,MYSTiC,PrisM,Noir,WBZ,LAP,Rx,Kingdom,SAFCuk009+Fabreezy,HDLiTE,TWiZTED,ETRG.ELEKTRI4KA,MAGNAT,CM8
And to all the other p2p grps past and present


